<svg xmlns="http://www.w3.org/2000/svg" xmlns:xlink="http://www.w3.org/1999/xlink" width="120" height="120" viewBox="0 0 120 120"><defs><path id="a" d="M.49.5h119v119H.49z"/></defs><clipPath id="b"><use xlink:href="#a" overflow="visible"/></clipPath><path clip-path="url(#b)" fill="#21A358" d="M59.99 119.496c32.86 0 59.5-26.636 59.5-59.5 0-32.86-26.64-59.5-59.5-59.5S.49 27.136.49 59.996c0 32.864 26.64 59.5 59.5 59.5"/><g fill="#FFF"><path d="M85.19 75.402c-1.315.102-2.123.15-2.426.15-.984 0-1.826-.06-2.52-.187-.696-.127-1.283-.36-1.763-.702-.48-.342-.853-.714-1.118-1.118s-.475-.998-.626-1.782c-.15-.78-.247-1.56-.284-2.33-.038-.772-.057-1.802-.057-3.09V46.74h8.303v-6.1h-8.303V25.7c-.177 0-2.868-.277-8.076-.833-5.208-.557-9.15-.835-11.828-.835-5.687 0-9.79 1.195-12.303 3.584-2.516 2.387-3.8 6.198-3.85 11.43v1.744h-6.558v5.914h6.56v35.712h9.667V46.704h8.984V40.79H50.01v-2.578c.024-2.63.586-4.46 1.686-5.497s3.216-1.556 6.35-1.556c.986 0 2.01.032 3.07.096 1.062.062 2.2.15 3.413.266 1.213.112 1.944.183 2.197.208v33.096c0 1.743.045 3.26.133 4.55.09 1.29.247 2.597.475 3.923.227 1.327.55 2.452.966 3.375.418.922.963 1.8 1.63 2.634.672.833 1.473 1.497 2.41 1.99.933.49 2.058.885 3.373 1.174 1.313.29 2.806.436 4.474.436.86 0 1.642-.03 2.35-.094s1.398-.15 2.066-.266c.67-.112 1.03-.17 1.08-.17l-.493-6.978zM84.178 99.076H38.845V91.52h45.333v7.556"/></g></svg>